<?xml version="1.0" standalone="no"?>
<!DOCTYPE svg PUBLIC "-//W3C//DTD SVG 20010904//EN"
 "http://www.w3.org/TR/2001/REC-SVG-20010904/DTD/svg10.dtd">
<svg version="1.0" xmlns="http://www.w3.org/2000/svg"
 width="415.000000pt" height="430.000000pt" viewBox="0 0 415.000000 430.000000"
 preserveAspectRatio="xMidYMid meet">
<metadata>
Created by potrace 1.16, written by Peter Selinger 2001-2019
</metadata>
<g transform="translate(0.000000,430.000000) scale(0.100000,-0.100000)"
fill="#fff" stroke="none">
<path d="M1558 3173 l-638 -368 0 -720 0 -720 312 -180 c171 -99 338 -195 370
-213 l59 -34 -3 57 -3 58 -302 174 -303 175 0 683 0 683 522 301 522 301 103
0 103 0 2 -672 3 -673 343 -3 342 -2 0 -208 0 -207 -230 -133 c-211 -122 -233
-132 -280 -132 l-50 0 0 180 0 180 -65 0 -65 0 0 -300 c0 -165 2 -300 4 -300
8 0 792 453 809 468 16 14 17 38 15 296 l-3 281 -347 3 -348 2 0 340 0 340 50
0 c47 0 69 -11 280 -132 l230 -133 0 -47 0 -48 70 0 70 0 0 59 c0 41 -5 62
-16 72 -8 7 -165 99 -347 204 l-332 191 -5 208 -5 208 -110 64 c-60 35 -112
64 -115 64 -3 0 -292 -165 -642 -367z"/>
<path d="M2750 3178 l0 -54 300 -173 300 -173 0 -683 0 -683 -522 -301 -522
-301 -103 0 -103 0 0 1135 c0 624 -2 1135 -4 1135 -8 0 -791 -453 -808 -468
-17 -14 -18 -51 -18 -517 0 -466 1 -503 18 -517 9 -8 169 -102 355 -209 l337
-194 0 -205 0 -206 111 -63 110 -63 162 93 c90 52 377 218 640 369 l477 275 0
720 0 720 -356 205 c-195 113 -359 207 -364 208 -6 2 -10 -20 -10 -50z m-770
-1083 l0 -745 -55 0 c-53 0 -66 6 -285 133 l-230 132 0 480 0 480 228 132
c218 127 229 132 285 132 l57 1 0 -745z"/>
</g>
</svg>
